<svg version="1.1" viewBox="0.0 0.0 960.0 720.0" fill="none" stroke="none" stroke-linecap="square" stroke-miterlimit="10" xmlns:xlink="http://www.w3.org/1999/xlink" xmlns="http://www.w3.org/2000/svg"><clipPath id="p.0"><path d="m0 0l960.0 0l0 720.0l-960.0 0l0 -720.0z" clip-rule="nonzero"/></clipPath><g clip-path="url(#p.0)"><path fill="#000000" fill-opacity="0.0" d="m0 0l960.0 0l0 720.0l-960.0 0z" fill-rule="evenodd"/><path fill="#000000" d="m171.32379 85.07473l617.3543 0.03150177l0 423.27557l-617.3543 -0.03149414zm26.95842 26.9598l0 369.35876l563.43744 0.028747559l0 -369.35876z" fill-rule="evenodd"/><path stroke="#000000" stroke-width="24.0" stroke-linejoin="round" stroke-linecap="butt" d="m171.32379 85.07473l617.3543 0.03150177l0 423.27557l-617.3543 -0.03149414zm26.95842 26.9598l0 369.35876l563.43744 0.028747559l0 -369.35876z" fill-rule="evenodd"/><path fill="#b7b7b7" d="m555.2336 610.3123l-150.46716 0l30.093414 -90.0l90.280304 0z" fill-rule="evenodd"/><path stroke="#b7b7b7" stroke-width="1.0" stroke-linejoin="round" stroke-linecap="butt" d="m555.2336 610.3123l-150.46716 0l30.093414 -90.0l90.280304 0z" fill-rule="evenodd"/><path fill="#ffffff" d="m468.04724 495.35696l0 0c0 -7.192749 5.3514404 -13.023621 11.952759 -13.023621l0 0c3.1700745 0 6.2102966 1.3721313 8.451874 3.8145142c2.2415771 2.4424133 3.500885 5.755005 3.500885 9.209106l0 0c0 7.192749 -5.3514404 13.023621 -11.952759 13.023621l0 0c-6.6013184 0 -11.952759 -5.8308716 -11.952759 -13.023621z" fill-rule="evenodd"/><path stroke="#ffffff" stroke-width="1.0" stroke-linejoin="round" stroke-linecap="butt" d="m468.04724 495.35696l0 0c0 -7.192749 5.3514404 -13.023621 11.952759 -13.023621l0 0c3.1700745 0 6.2102966 1.3721313 8.451874 3.8145142c2.2415771 2.4424133 3.500885 5.755005 3.500885 9.209106l0 0c0 7.192749 -5.3514404 13.023621 -11.952759 13.023621l0 0c-6.6013184 0 -11.952759 -5.8308716 -11.952759 -13.023621z" fill-rule="evenodd"/></g></svg>